<svg id="ovo" xmlns="http://www.w3.org/2000/svg" viewBox="0 0 914 300"><title>ovo</title><path d="M312.39,10.23H428.31l.08,46.46-28.53,0L467.5,217.06,534,56.79H504.68V10.36l92.75,0-.12,26.49L485.68,297.52c-26.95.06-44.48-9.7-53.87-30.13L339.88,56.8l-27.51,0V10.23ZM153,2.08c80.61,0,146,65.79,146,147S233.56,296,153,296,7,230.18,7,149s65.35-147,146-147Zm-.45,48.08c-50.84,0-92.05,44.76-92.05,100s41.21,100,92.05,100,92.06-44.75,92.06-100-41.22-100-92.06-100ZM762,2.08c80.61,0,146,65.79,146,147S842.66,296,762,296s-146-65.79-146-146.95,65.34-147,146-147Zm-.45,48.08c-50.84,0-92.06,44.76-92.06,100s41.22,100,92.06,100,92.05-44.75,92.05-100S812.44,50.16,761.6,50.16Z" style="fill:#4c2a86;fill-rule:evenodd"/></svg>